<svg width="155" height="154" viewBox="0 0 155 154" fill="none" xmlns="http://www.w3.org/2000/svg">
<path d="M24.3315 143.161C23.5341 143.161 23.1355 142.755 23.1355 141.942V128.786H18.2595C17.5695 128.786 17.2245 128.449 17.2245 127.774C17.2245 127.115 17.5695 126.785 18.2595 126.785H30.3805C31.0858 126.785 31.4385 127.115 31.4385 127.774C31.4385 128.449 31.0858 128.786 30.3805 128.786H25.5045V141.942C25.5045 142.755 25.1135 143.161 24.3315 143.161ZM36.4796 143.207C34.6396 143.207 33.1906 142.693 32.1326 141.666C31.0746 140.623 30.5456 139.205 30.5456 137.411C30.5456 136.261 30.7756 135.249 31.2356 134.375C31.7109 133.486 32.3626 132.796 33.1906 132.305C34.0186 131.814 34.9693 131.569 36.0426 131.569C37.5913 131.569 38.8103 132.067 39.6996 133.064C40.5889 134.045 41.0336 135.402 41.0336 137.135C41.0336 137.656 40.7269 137.917 40.1136 137.917H32.7996C32.9683 140.248 34.2026 141.413 36.5026 141.413C36.9626 141.413 37.4456 141.359 37.9516 141.252C38.4576 141.129 38.9483 140.915 39.4236 140.608C39.7456 140.424 40.0216 140.363 40.2516 140.424C40.4969 140.47 40.6733 140.6 40.7806 140.815C40.8879 141.014 40.9033 141.244 40.8266 141.505C40.7653 141.75 40.5889 141.965 40.2976 142.149C39.7763 142.502 39.1629 142.77 38.4576 142.954C37.7676 143.123 37.1083 143.207 36.4796 143.207ZM36.1346 133.202C35.1686 133.202 34.4019 133.501 33.8346 134.099C33.2673 134.697 32.9223 135.494 32.7996 136.491H39.0786C39.0326 135.448 38.7566 134.643 38.2506 134.076C37.7446 133.493 37.0393 133.202 36.1346 133.202ZM48.5111 143.207C47.3611 143.207 46.3644 142.969 45.5211 142.494C44.6931 142.003 44.0491 141.321 43.5891 140.447C43.1291 139.558 42.8991 138.515 42.8991 137.319C42.8991 135.54 43.4051 134.137 44.4171 133.11C45.4291 132.083 46.7938 131.569 48.5111 131.569C49.0478 131.569 49.6074 131.653 50.1901 131.822C50.7881 131.975 51.3401 132.236 51.8461 132.604C52.0914 132.757 52.2294 132.957 52.2601 133.202C52.3061 133.432 52.2678 133.654 52.1451 133.869C52.0378 134.068 51.8768 134.206 51.6621 134.283C51.4474 134.344 51.2021 134.298 50.9261 134.145C50.5581 133.884 50.1824 133.7 49.7991 133.593C49.4158 133.47 49.0478 133.409 48.6951 133.409C47.6064 133.409 46.7631 133.754 46.1651 134.444C45.5824 135.119 45.2911 136.085 45.2911 137.342C45.2911 138.599 45.5824 139.588 46.1651 140.309C46.7631 141.014 47.6064 141.367 48.6951 141.367C49.0478 141.367 49.4081 141.313 49.7761 141.206C50.1594 141.099 50.5428 140.915 50.9261 140.654C51.2021 140.501 51.4398 140.462 51.6391 140.539C51.8538 140.616 52.0071 140.761 52.0991 140.976C52.2064 141.175 52.2371 141.398 52.1911 141.643C52.1604 141.873 52.0224 142.065 51.7771 142.218C51.2864 142.571 50.7498 142.824 50.1671 142.977C49.5998 143.13 49.0478 143.207 48.5111 143.207ZM55.4524 143.161C54.6858 143.161 54.3024 142.77 54.3024 141.988V127.797C54.3024 127.015 54.6858 126.624 55.4524 126.624C56.2344 126.624 56.6254 127.015 56.6254 127.797V133.524C57.0088 132.88 57.5224 132.397 58.1664 132.075C58.8258 131.738 59.5618 131.569 60.3744 131.569C63.0271 131.569 64.3534 133.072 64.3534 136.077V141.988C64.3534 142.77 63.9701 143.161 63.2034 143.161C62.4214 143.161 62.0304 142.77 62.0304 141.988V136.215C62.0304 135.249 61.8388 134.544 61.4554 134.099C61.0874 133.654 60.5048 133.432 59.7074 133.432C58.7721 133.432 58.0208 133.731 57.4534 134.329C56.9014 134.912 56.6254 135.686 56.6254 136.652V141.988C56.6254 142.77 56.2344 143.161 55.4524 143.161ZM68.7044 143.161C67.9377 143.161 67.5544 142.77 67.5544 141.988V132.788C67.5544 132.006 67.9301 131.615 68.6814 131.615C69.4327 131.615 69.8084 132.006 69.8084 132.788V133.639C70.1917 132.964 70.7131 132.451 71.3724 132.098C72.0471 131.745 72.7984 131.569 73.6264 131.569C76.2791 131.569 77.6054 133.072 77.6054 136.077V141.988C77.6054 142.77 77.2221 143.161 76.4554 143.161C75.6734 143.161 75.2824 142.77 75.2824 141.988V136.215C75.2824 135.249 75.0907 134.544 74.7074 134.099C74.3394 133.654 73.7567 133.432 72.9594 133.432C72.0241 133.432 71.2727 133.731 70.7054 134.329C70.1534 134.912 69.8774 135.686 69.8774 136.652V141.988C69.8774 142.77 69.4864 143.161 68.7044 143.161ZM85.6823 143.207C84.5477 143.207 83.5663 142.969 82.7383 142.494C81.9103 142.019 81.2663 141.352 80.8063 140.493C80.3617 139.619 80.1393 138.584 80.1393 137.388C80.1393 136.192 80.3617 135.165 80.8063 134.306C81.2663 133.432 81.9103 132.757 82.7383 132.282C83.5663 131.807 84.5477 131.569 85.6823 131.569C86.7863 131.569 87.7523 131.807 88.5803 132.282C89.4083 132.757 90.0523 133.432 90.5123 134.306C90.9723 135.165 91.2023 136.192 91.2023 137.388C91.2023 138.584 90.9723 139.619 90.5123 140.493C90.0523 141.352 89.4083 142.019 88.5803 142.494C87.7523 142.969 86.7863 143.207 85.6823 143.207ZM85.6823 141.413C86.633 141.413 87.3997 141.068 87.9823 140.378C88.565 139.688 88.8563 138.691 88.8563 137.388C88.8563 136.085 88.565 135.096 87.9823 134.421C87.3997 133.731 86.633 133.386 85.6823 133.386C84.7163 133.386 83.942 133.731 83.3593 134.421C82.7767 135.096 82.4853 136.085 82.4853 137.388C82.4853 138.691 82.7767 139.688 83.3593 140.378C83.942 141.068 84.7163 141.413 85.6823 141.413ZM97.4222 143.207C96.2262 143.207 95.3216 142.862 94.7082 142.172C94.1102 141.482 93.8112 140.47 93.8112 139.136V127.797C93.8112 127.015 94.1946 126.624 94.9612 126.624C95.7432 126.624 96.1342 127.015 96.1342 127.797V138.998C96.1342 140.516 96.7476 141.275 97.9742 141.275C98.1122 141.275 98.2349 141.267 98.3422 141.252C98.4496 141.237 98.5569 141.229 98.6642 141.229C98.8482 141.214 98.9786 141.267 99.0552 141.39C99.1319 141.497 99.1702 141.727 99.1702 142.08C99.1702 142.709 98.8789 143.069 98.2962 143.161C98.1429 143.176 97.9896 143.184 97.8362 143.184C97.6982 143.199 97.5602 143.207 97.4222 143.207ZM105.605 143.207C104.471 143.207 103.489 142.969 102.661 142.494C101.833 142.019 101.189 141.352 100.729 140.493C100.285 139.619 100.062 138.584 100.062 137.388C100.062 136.192 100.285 135.165 100.729 134.306C101.189 133.432 101.833 132.757 102.661 132.282C103.489 131.807 104.471 131.569 105.605 131.569C106.709 131.569 107.675 131.807 108.503 132.282C109.331 132.757 109.975 133.432 110.435 134.306C110.895 135.165 111.125 136.192 111.125 137.388C111.125 138.584 110.895 139.619 110.435 140.493C109.975 141.352 109.331 142.019 108.503 142.494C107.675 142.969 106.709 143.207 105.605 143.207ZM105.605 141.413C106.556 141.413 107.323 141.068 107.905 140.378C108.488 139.688 108.779 138.691 108.779 137.388C108.779 136.085 108.488 135.096 107.905 134.421C107.323 133.731 106.556 133.386 105.605 133.386C104.639 133.386 103.865 133.731 103.282 134.421C102.7 135.096 102.408 136.085 102.408 137.388C102.408 138.691 102.7 139.688 103.282 140.378C103.865 141.068 104.639 141.413 105.605 141.413ZM118.817 147.347C117.989 147.347 117.184 147.263 116.402 147.094C115.635 146.925 114.938 146.649 114.309 146.266C114.033 146.113 113.864 145.921 113.803 145.691C113.742 145.461 113.765 145.239 113.872 145.024C113.995 144.809 114.156 144.648 114.355 144.541C114.57 144.449 114.8 144.472 115.045 144.61C115.72 144.978 116.356 145.223 116.954 145.346C117.567 145.484 118.135 145.553 118.656 145.553C120.803 145.553 121.876 144.48 121.876 142.333V140.562C121.554 141.237 121.048 141.766 120.358 142.149C119.683 142.532 118.924 142.724 118.081 142.724C117.069 142.724 116.187 142.494 115.436 142.034C114.685 141.559 114.102 140.907 113.688 140.079C113.274 139.236 113.067 138.254 113.067 137.135C113.067 136.031 113.274 135.065 113.688 134.237C114.102 133.394 114.685 132.742 115.436 132.282C116.187 131.807 117.069 131.569 118.081 131.569C118.924 131.569 119.676 131.761 120.335 132.144C121.01 132.512 121.508 133.018 121.83 133.662V132.788C121.83 132.006 122.213 131.615 122.98 131.615C123.747 131.615 124.13 132.006 124.13 132.788V142.057C124.13 143.82 123.678 145.139 122.773 146.013C121.868 146.902 120.55 147.347 118.817 147.347ZM118.633 140.907C119.614 140.907 120.396 140.57 120.979 139.895C121.562 139.22 121.853 138.3 121.853 137.135C121.853 135.97 121.562 135.057 120.979 134.398C120.396 133.723 119.614 133.386 118.633 133.386C117.652 133.386 116.87 133.723 116.287 134.398C115.704 135.057 115.413 135.97 115.413 137.135C115.413 138.3 115.704 139.22 116.287 139.895C116.87 140.57 117.652 140.907 118.633 140.907ZM130.035 147.301C129.606 147.301 129.307 147.14 129.138 146.818C128.985 146.511 129 146.151 129.184 145.737L130.541 142.701L126.447 133.202C126.263 132.788 126.256 132.42 126.424 132.098C126.608 131.776 126.961 131.615 127.482 131.615C127.758 131.615 127.981 131.684 128.149 131.822C128.333 131.96 128.494 132.198 128.632 132.535L131.783 140.309L134.98 132.535C135.118 132.182 135.279 131.945 135.463 131.822C135.647 131.684 135.9 131.615 136.222 131.615C136.636 131.615 136.92 131.776 137.073 132.098C137.227 132.42 137.219 132.78 137.05 133.179L131.3 146.404C131.147 146.757 130.971 146.994 130.771 147.117C130.587 147.24 130.342 147.301 130.035 147.301Z" fill="#00B5F6"/>
<path d="M38.276 39.2795C44.2756 39.2795 49.7702 35.9952 52.6157 30.7083C54.0482 28.0469 57.4247 26.2587 61.0178 26.2587H68.0514C71.5688 26.2587 74.7817 28.0052 76.2365 30.7083C79.0822 35.9952 84.5768 39.2795 90.5764 39.2795C99.551 39.2795 106.852 31.9781 106.852 23.0035C106.852 14.0288 99.551 6.72742 90.5764 6.72742C84.5768 6.72742 79.0823 10.0117 76.2368 15.2986C74.7819 18.0017 71.569 19.7482 68.0516 19.7482C65.5916 19.7482 63.4779 19.7482 61.018 19.7482C57.4249 19.7482 54.0484 17.9601 52.6159 15.2986C49.7702 10.0117 44.2756 6.72742 38.276 6.72742C29.3014 6.72742 22 14.0288 22 23.0035C22 31.9781 29.3014 39.2795 38.276 39.2795V39.2795ZM81.9696 18.3841C83.678 15.2098 86.9759 13.2378 90.5764 13.2378C95.9612 13.2378 100.342 17.6187 100.342 23.0035C100.342 28.3882 95.9612 32.7691 90.5764 32.7691C86.9759 32.7691 83.678 30.7971 81.9696 27.6228C80.9909 25.8045 79.6313 24.2443 77.9998 23.0035C79.6311 21.7626 80.9909 20.2022 81.9696 18.3841ZM38.276 13.2378C41.8765 13.2378 45.1745 15.2098 46.8828 18.3841C47.855 20.1905 49.252 21.7552 50.9371 23.0035C49.2517 24.2519 47.855 25.8164 46.8828 27.6228C45.1745 30.7971 41.8765 32.7691 38.276 32.7691C32.8913 32.7691 28.5104 28.3882 28.5104 23.0035C28.5104 17.6187 32.8913 13.2378 38.276 13.2378V13.2378Z" fill="#00B5F6"/>
<path d="M87.3212 19.7483H93.8316V26.2587H87.3212V19.7483Z" fill="#00B5F6"/>
<path d="M38.276 104.384C44.2756 104.384 49.7702 101.099 52.6157 95.8125C54.0705 93.1096 57.2834 91.3628 60.8008 91.3628H68.0514C71.5688 91.3628 74.7817 93.1096 76.2365 95.8125C79.0822 101.099 84.5768 104.384 90.5764 104.384C99.551 104.384 106.852 97.0822 106.852 88.1076C106.852 79.133 99.551 71.8316 90.5764 71.8316C84.5768 71.8316 79.0823 75.1159 76.2368 80.4028C74.7819 83.1057 71.569 84.8524 68.0516 84.8524C65.526 84.8524 63.3639 84.8524 60.801 84.8524C57.2836 84.8524 54.0707 83.1057 52.6159 80.4028C49.7702 75.1159 44.2756 71.8316 38.276 71.8316C29.3014 71.8316 22 79.133 22 88.1076C22 97.0822 29.3014 104.384 38.276 104.384V104.384ZM81.9696 83.4883C83.678 80.3138 86.9759 78.342 90.5764 78.342C95.9612 78.342 100.342 82.7229 100.342 88.1076C100.342 93.4924 95.9612 97.8732 90.5764 97.8732C86.9759 97.8732 83.678 95.9015 81.9696 92.727C80.9909 90.9086 79.6313 89.3485 77.9998 88.1076C79.6311 86.8667 80.9909 85.3064 81.9696 83.4883ZM38.276 78.342C41.8765 78.342 45.1745 80.3138 46.8828 83.4883C47.8615 85.3066 49.2211 86.8667 50.8526 88.1076C49.2211 89.3485 47.8615 90.9088 46.8828 92.727C45.1745 95.9015 41.8765 97.8732 38.276 97.8732C32.8913 97.8732 28.5104 93.4924 28.5104 88.1076C28.5104 82.7229 32.8913 78.342 38.276 78.342Z" fill="#00B5F6"/>
<path d="M87.3212 84.8524H93.8316V91.3628H87.3212V84.8524Z" fill="#00B5F6"/>
<path d="M102.278 47.8507C100.824 50.5538 97.6107 52.3003 94.0933 52.3003C91.6332 52.3003 89.5195 52.3003 87.0595 52.3003C83.5421 52.3003 80.3292 50.5536 78.8744 47.8507C76.0289 42.5638 70.5343 39.2795 64.5347 39.2795C55.5601 39.2795 48.2587 46.5809 48.2587 55.5556C48.2587 64.5302 55.5601 71.8316 64.5347 71.8316C70.5343 71.8316 76.0289 68.5473 78.8744 63.2604C80.3292 60.5575 83.5421 58.8108 87.0595 58.8108H94.0933C97.6107 58.8108 100.824 60.5573 102.278 63.2604C105.124 68.5473 110.618 71.8316 116.618 71.8316C125.615 71.8316 133.111 64.5542 133.111 55.5556C133.111 46.5588 125.617 39.2795 116.618 39.2795C110.618 39.2795 105.124 42.5638 102.278 47.8507ZM73.1415 60.1749C71.4332 63.3494 68.1352 65.3212 64.5347 65.3212C59.15 65.3212 54.7691 60.9403 54.7691 55.5556C54.7691 50.1708 59.15 45.7899 64.5347 45.7899C68.1352 45.7899 71.4332 47.7617 73.1415 50.9362C74.1202 52.7546 75.4798 54.3147 77.1113 55.5556C75.4798 56.7964 74.1202 58.3568 73.1415 60.1749ZM108.011 50.9362C109.72 47.7619 113.018 45.7899 116.618 45.7899C122.029 45.7899 126.601 50.2619 126.601 55.5556C126.601 60.8492 122.029 65.3212 116.618 65.3212C113.018 65.3212 109.72 63.3492 108.011 60.1749C107.033 58.3566 105.673 56.7962 104.041 55.5556C105.673 54.3147 107.033 52.7543 108.011 50.9362V50.9362Z" fill="#00B5F6"/>
<path d="M61.2795 52.3003H67.7899V58.8107H61.2795V52.3003Z" fill="#00B5F6"/>
</svg>
